<?xml version="1.0" standalone="no"?>
<!DOCTYPE svg PUBLIC "-//W3C//DTD SVG 20010904//EN"
 "http://www.w3.org/TR/2001/REC-SVG-20010904/DTD/svg10.dtd">
<svg version="1.0" xmlns="http://www.w3.org/2000/svg"
 width="800.000000pt" height="800.000000pt" viewBox="0 0 800.000000 800.000000"
 preserveAspectRatio="xMidYMid meet">
<metadata>
Created by potrace 1.14, written by Peter Selinger 2001-2017
</metadata>
<g transform="translate(0.000000,800.000000) scale(0.100000,-0.100000)"
fill="#000000" stroke="none">
<path d="M6083 7984 c-188 -56 -477 -297 -658 -548 -11 -16 -24 -34 -30 -40
-13 -15 -23 -31 -82 -132 l-47 -80 -216 0 c-186 -1 -255 -4 -390 -19 -14 -1
-45 -6 -70 -10 -25 -4 -56 -9 -70 -10 -37 -5 -103 -16 -120 -20 -8 -2 -28 -7
-45 -10 -16 -2 -41 -7 -55 -10 -14 -3 -36 -8 -50 -11 -14 -3 -83 -21 -155 -40
-71 -20 -134 -37 -140 -38 -5 -2 -17 -5 -25 -8 -8 -3 -44 -15 -80 -27 -106
-33 -314 -112 -415 -156 -434 -190 -744 -362 -1084 -603 -74 -52 -144 -103
-155 -113 -12 -9 -61 -49 -111 -89 -272 -217 -535 -477 -738 -730 -37 -47 -75
-94 -85 -105 -24 -29 -216 -317 -234 -351 -9 -16 -34 -63 -57 -104 -22 -41
-47 -88 -55 -105 -42 -90 -70 -151 -72 -163 -1 -6 -12 -32 -24 -57 -12 -25
-23 -51 -24 -57 -2 -7 -6 -20 -9 -28 -33 -89 -87 -280 -101 -360 -2 -14 -7
-36 -10 -50 -3 -14 -8 -42 -11 -62 -3 -21 -7 -53 -10 -70 -3 -18 -8 -55 -11
-83 -8 -61 -9 -499 -1 -575 5 -53 32 -223 41 -265 36 -164 37 -165 75 -289 61
-194 189 -513 231 -576 6 -8 17 -30 26 -48 48 -107 272 -452 369 -571 102
-125 198 -231 311 -345 113 -114 275 -256 293 -256 5 0 13 -5 16 -10 6 -9 -27
-27 -65 -35 -63 -14 -381 -159 -420 -191 -8 -7 -18 -13 -23 -13 -18 -1 -157
-104 -209 -154 -69 -68 -95 -117 -95 -177 0 -54 14 -85 59 -128 107 -105 366
-70 665 89 131 70 137 73 143 79 3 3 25 16 50 29 25 13 109 66 188 118 l143
94 114 -55 c154 -76 334 -146 485 -191 69 -21 132 -40 140 -43 8 -3 22 -6 30
-8 40 -8 80 -15 85 -15 2 0 19 -4 36 -9 18 -5 51 -12 73 -16 47 -7 71 -12 71
-14 0 -1 23 -3 50 -5 28 -2 61 -7 75 -10 113 -25 669 -25 798 0 10 2 52 6 93
10 40 4 77 8 80 11 3 2 26 6 50 10 24 3 54 7 66 9 11 2 29 6 40 9 10 3 34 8
53 11 19 3 62 13 95 21 33 9 68 18 78 19 10 2 57 16 105 31 97 30 98 31 129
38 12 2 31 10 43 16 12 6 29 13 38 15 60 12 384 159 541 244 41 22 201 131
256 174 178 138 336 301 402 416 15 25 30 48 33 51 11 8 30 96 30 135 0 81
-57 131 -162 142 -87 9 -127 -26 -218 -192 -136 -248 -417 -472 -810 -648 -19
-8 -60 -26 -90 -40 -157 -70 -508 -176 -631 -192 -16 -2 -36 -6 -46 -9 -10 -3
-42 -8 -72 -11 -30 -4 -63 -9 -75 -11 -31 -6 -121 -14 -210 -19 -43 -2 -81 -7
-84 -10 -3 -2 -11 0 -19 6 -7 6 -13 8 -13 3 0 -15 -359 1 -460 20 -14 2 -59
10 -100 16 -189 29 -461 111 -664 200 -106 46 -110 49 -83 59 15 6 38 13 50
15 35 7 443 112 547 141 52 14 102 28 110 29 8 2 42 12 75 22 33 10 62 19 65
19 16 4 97 27 108 30 7 3 13 4 15 4 1 0 36 12 77 26 41 14 84 27 95 30 18 3
298 97 335 112 8 3 20 7 25 8 39 9 616 230 690 265 11 5 49 21 85 36 36 14 85
35 110 46 25 11 61 26 80 35 69 30 165 75 192 89 14 8 33 14 42 14 9 0 16 5
16 10 0 6 5 10 10 10 15 0 222 102 238 117 7 7 18 13 24 13 16 0 271 154 393
238 164 113 332 242 465 358 109 96 330 326 395 412 6 7 18 21 28 30 9 9 17
22 17 29 0 7 4 13 8 13 4 0 16 15 27 33 10 17 21 34 25 37 21 16 128 217 161
300 62 158 74 228 74 415 0 175 -17 248 -90 399 -121 253 -389 479 -740 627
-27 11 -186 62 -204 65 -8 2 -44 10 -80 18 -37 9 -82 18 -101 21 -19 3 -46 8
-60 10 -25 4 -153 17 -178 18 -21 1 -11 10 103 102 138 110 248 214 376 355
59 65 179 219 179 229 0 6 5 11 10 11 6 0 10 6 10 14 0 8 4 16 8 18 15 5 99
159 132 238 54 131 73 221 73 345 0 105 -13 185 -43 260 -6 17 -11 31 -10 33
3 6 -56 121 -84 162 -33 48 -169 188 -226 232 -19 14 -52 40 -73 57 -21 16
-47 33 -58 36 -10 4 -19 11 -19 16 0 5 -4 9 -10 9 -5 0 -26 12 -47 26 -81 56
-372 185 -468 208 -5 1 -36 8 -67 16 -33 7 -58 19 -58 26 0 35 150 269 240
374 53 62 158 169 196 200 36 29 119 87 134 94 112 50 139 124 64 175 -42 29
-133 36 -201 15z m-963 -1053 c0 -3 -9 -21 -20 -39 -11 -18 -20 -39 -20 -47 0
-8 -4 -15 -10 -15 -5 0 -10 -4 -10 -9 0 -5 -22 -55 -49 -112 -71 -150 -120
-271 -203 -504 -54 -152 -161 -492 -174 -554 -3 -14 -7 -28 -10 -33 -3 -4 -7
-16 -9 -25 -2 -10 -35 -142 -73 -294 -39 -151 -73 -289 -76 -305 -3 -16 -12
-56 -20 -89 -12 -50 -34 -154 -52 -240 -2 -11 -6 -31 -9 -45 -3 -14 -8 -36
-10 -50 -3 -14 -12 -56 -20 -95 -9 -38 -17 -85 -20 -103 -2 -18 -6 -36 -9 -40
-2 -4 -7 -32 -11 -62 -4 -30 -9 -59 -12 -63 -2 -4 -6 -22 -9 -40 -2 -18 -6
-43 -9 -57 -3 -14 -9 -47 -15 -75 -5 -27 -12 -62 -14 -78 -3 -15 -7 -35 -10
-45 -3 -9 -8 -35 -11 -57 -7 -45 -13 -70 -15 -70 -1 0 -3 -9 -5 -20 -1 -11 -5
-31 -8 -45 -13 -55 -17 -76 -22 -102 -3 -16 -12 -58 -21 -95 -22 -96 -24 -105
-30 -133 -4 -20 -16 -65 -29 -110 -1 -3 -5 -23 -10 -45 -13 -56 -12 -55 -15
-57 -1 -2 -3 -12 -5 -23 -2 -11 -8 -36 -14 -55 -14 -45 -102 -352 -105 -365
-2 -5 -6 -17 -9 -25 -4 -8 -18 -49 -31 -90 -23 -73 -67 -195 -85 -235 -5 -11
-19 -45 -31 -75 -22 -54 -140 -290 -150 -300 -3 -3 -14 -21 -24 -40 -55 -100
-185 -283 -296 -415 -42 -51 -272 -278 -323 -320 -27 -22 -54 -45 -60 -50 -7
-6 -43 -34 -82 -63 -38 -29 -79 -59 -90 -68 -19 -15 -65 -43 -174 -106 -25
-15 -54 -27 -63 -27 -10 -1 -18 -5 -18 -9 0 -4 -21 -14 -48 -22 -26 -7 -57
-17 -69 -21 -15 -5 -28 -1 -42 12 -11 10 -23 19 -26 19 -4 0 -28 17 -53 37
-189 151 -398 359 -514 512 -24 31 -46 58 -49 61 -24 20 -174 267 -235 385
-41 80 -74 146 -73 147 1 2 -6 20 -15 42 -9 21 -16 41 -16 43 0 3 -6 19 -14
36 -41 91 -116 366 -131 481 -3 21 -8 42 -10 46 -3 4 -7 36 -10 71 -3 35 -7
75 -10 89 -23 112 -23 593 0 711 3 13 7 44 10 69 5 51 8 65 36 205 26 128 99
387 139 496 17 46 33 89 34 94 2 6 8 23 14 38 7 16 12 30 12 32 0 10 80 181
134 285 32 63 64 125 70 137 6 13 14 23 19 23 4 0 7 5 7 11 0 6 20 42 45 80
25 38 45 74 45 80 0 5 7 12 15 15 8 4 15 10 15 16 0 5 12 26 27 46 63 87 109
148 118 158 6 7 24 29 40 49 112 139 301 335 429 445 27 23 55 48 63 56 8 8
31 27 51 42 21 15 39 29 42 33 6 6 229 170 252 184 9 6 37 25 62 43 26 17 49
32 51 32 2 0 34 20 72 45 37 25 74 45 81 45 6 0 12 5 12 10 0 6 4 10 8 10 5 0
44 20 88 45 43 25 167 89 274 141 107 52 207 101 222 109 14 8 33 15 42 15 9
0 16 4 16 8 0 5 15 14 33 20 17 6 84 29 147 52 63 23 120 43 125 44 6 2 17 6
25 9 16 7 280 76 308 81 20 4 92 18 107 21 25 6 221 33 290 41 17 2 91 6 165
10 74 3 137 8 138 10 6 4 32 -7 32 -15z m515 -97 c308 -155 501 -411 542 -719
10 -78 -3 -400 -17 -400 -1 0 -3 -9 -4 -20 -3 -17 -31 -122 -40 -150 -2 -5 -7
-21 -12 -35 -12 -38 -106 -223 -121 -238 -7 -7 -13 -17 -13 -21 0 -4 -8 -16
-17 -27 -10 -10 -31 -37 -48 -59 -39 -54 -177 -190 -245 -242 -30 -24 -60 -47
-67 -53 -6 -5 -50 -34 -96 -64 l-84 -54 -112 -6 c-61 -3 -123 -9 -137 -12 -25
-7 -26 -6 -20 42 3 27 8 74 11 104 7 75 14 145 21 205 4 28 7 66 9 85 1 19 5
58 9 85 7 57 15 131 21 190 8 84 16 161 20 185 2 14 6 43 9 65 10 80 16 121
21 145 3 13 7 42 10 65 10 66 67 338 76 363 5 12 7 22 4 22 -2 0 2 18 10 41 8
22 14 43 13 47 -1 4 2 14 5 22 3 8 12 35 18 60 16 57 18 65 21 78 0 4 7 22 15
40 7 17 10 32 7 32 -4 0 -2 6 3 13 5 6 27 65 48 129 28 81 45 118 55 118 8 0
47 -16 85 -36z m142 -2347 c5 -4 25 -9 44 -12 19 -4 39 -8 44 -9 46 -12 72
-20 80 -25 6 -3 15 -6 21 -7 29 -4 156 -71 230 -121 67 -44 216 -179 259 -235
104 -132 172 -290 193 -448 12 -90 5 -278 -13 -371 -12 -62 -58 -209 -87 -274
-31 -71 -128 -245 -161 -289 -4 -6 -26 -36 -48 -66 -88 -120 -267 -308 -393
-415 -33 -27 -69 -58 -80 -68 -118 -101 -373 -258 -577 -356 -129 -61 -336
-154 -349 -157 -3 0 -27 -11 -55 -23 -27 -13 -72 -32 -100 -42 -27 -11 -59
-24 -70 -29 -39 -17 -91 -38 -185 -75 -52 -20 -104 -40 -115 -45 -11 -5 -85
-32 -165 -61 -80 -28 -154 -55 -165 -60 -18 -8 -436 -149 -442 -149 -9 0 -21
-4 -43 -12 -14 -5 -32 -11 -40 -13 -8 -2 -69 -20 -135 -40 -158 -48 -168 -49
-131 -22 249 187 568 491 709 674 12 16 27 33 33 38 45 39 374 516 374 542 0
3 6 14 14 22 7 9 29 45 47 81 18 36 37 67 41 68 4 2 8 12 8 22 0 10 4 21 10
25 15 9 156 316 209 455 12 30 26 64 30 75 5 11 17 43 27 70 10 28 22 56 27
63 5 6 7 12 4 12 -3 0 3 26 14 58 24 67 69 209 74 236 3 10 9 33 15 51 9 28
63 234 75 290 3 11 9 40 15 65 5 25 12 56 14 70 4 22 17 88 30 146 2 12 7 39
10 60 4 22 11 66 16 99 6 33 13 74 15 91 5 28 9 31 48 32 62 3 151 20 194 39
120 50 133 53 279 49 78 -2 146 -6 151 -9z"/>
</g>
</svg>
